<svg width="196" height="50" viewBox="0 0 196 50" fill="none" xmlns="http://www.w3.org/2000/svg">
<path fill-rule="evenodd" clip-rule="evenodd" d="M167.69 0C167.69 0 167.69 10.4508 156.296 10.4508C167.689 10.4508 167.689 20.9017 167.689 20.9017H167.695C167.695 20.9017 167.695 10.4508 179.088 10.4508C167.695 10.4508 167.695 0 167.695 0H167.69ZM151.764 17.4085H158.109C159.117 17.4085 160.085 17.7956 160.798 18.4847C161.511 19.1738 161.912 20.1083 161.912 21.0828V49.2548H151.764V17.4085ZM67.8644 33.8447V17.4886H78.0542V49.1728H67.745C67.0841 46.4775 67.9743 44.0798 68.8978 41.5924L68.8978 41.5924L68.8978 41.5923C69.1117 41.0161 69.3274 40.4351 69.526 39.8445C69.4728 39.9998 68.8302 40.8543 68.6161 41.139L68.616 41.1391L68.6156 41.1396L68.559 41.2151C66.9862 43.3437 64.318 45.8466 62.1215 47.451C54.789 52.8069 44.0993 49.3197 41.7925 40.7517C41.224 38.6393 41.0157 36.3943 40.9662 34.2036C40.8967 31.0834 40.9052 27.9621 40.9138 24.8405V24.8404V24.8403C40.9195 22.7538 40.9252 20.6671 40.9076 18.5807C40.8998 17.6376 41.1902 17.3668 42.1539 17.3842C44.2502 17.4213 46.3489 17.4154 48.4999 17.4094H48.5H48.5001C49.3132 17.4071 50.1338 17.4048 50.9646 17.4048V33.8447C50.9638 34.9169 51.1819 35.9787 51.6063 36.9695C52.0306 37.9602 52.653 38.8605 53.4377 39.6186C54.2224 40.3768 55.1542 40.9781 56.1796 41.3881C57.2051 41.7981 58.3041 42.0087 59.4139 42.008C61.6549 42.008 63.8041 41.148 65.3889 39.6171C66.9736 38.0862 67.8641 36.0098 67.8644 33.8447ZM147.278 32.4227C147.229 30.2287 147.019 27.9804 146.451 25.8648C144.139 17.2826 133.433 13.7911 126.089 19.1535C123.92 20.7394 121.294 23.1977 119.71 25.31C117.096 17.1347 106.697 13.9074 99.514 19.1535C97.313 20.7612 94.6414 23.2684 93.0653 25.4003C93.0505 25.4204 93.022 25.4583 92.9839 25.5091L92.9838 25.5093C92.7494 25.8218 92.1494 26.6215 92.0971 26.773C92.2958 26.1824 92.5115 25.6013 92.7254 25.0251C93.6507 22.5326 94.5425 20.1305 93.8804 17.4306H83.551V49.166H94.038V47.7606C94.0558 46.4778 94.0681 45.1948 94.0804 43.912V43.9119C94.1101 40.8059 94.1398 37.7006 94.2474 34.5992C94.2474 34.5746 94.2491 34.55 94.2508 34.5252C94.2523 34.5051 94.2537 34.4848 94.2542 34.4643V33.171C94.2542 32.0988 94.4728 31.0372 94.8974 30.0466C95.3221 29.0561 95.9446 28.156 96.7293 27.3979C97.514 26.6397 98.4455 26.0383 99.4708 25.628C100.496 25.2177 101.595 25.0065 102.705 25.0065C103.814 25.0065 104.913 25.2177 105.938 25.6281C106.963 26.0384 107.895 26.6398 108.68 27.3979C109.464 28.1561 110.087 29.0561 110.511 30.0467C110.936 31.0372 111.154 32.0989 111.154 33.171V49.2475C111.7 49.2465 112.241 49.2449 112.779 49.2433L112.782 49.2432C115.066 49.2364 117.288 49.2297 119.509 49.2693C120.475 49.2867 120.765 49.0158 120.757 48.0728C120.738 45.8826 120.745 43.6923 120.752 41.5021C120.756 40.0419 120.76 38.5818 120.757 37.1216C120.757 37.004 120.761 36.886 120.765 36.7681L120.765 36.7676C120.767 36.7089 120.769 36.6503 120.771 36.5919V33.1688C120.77 31.0045 121.66 28.9287 123.243 27.3977C124.826 25.8667 126.974 25.0058 129.214 25.0044C130.324 25.0044 131.423 25.2156 132.448 25.6259C133.473 26.0362 134.405 26.6376 135.189 27.3958C135.974 28.1539 136.596 29.054 137.021 30.0445C137.445 31.0351 137.664 32.0967 137.664 33.1688V49.2454C138.43 49.2454 139.187 49.2434 139.939 49.2415H139.939C142.019 49.2363 144.052 49.2311 146.083 49.2671C147.049 49.2845 147.339 49.0137 147.331 48.0706C147.316 46.0315 147.323 43.9912 147.329 41.9507C147.339 38.7742 147.349 35.597 147.278 32.4227ZM26.307 41.8228C29.313 41.8308 32.317 41.8348 35.3192 41.8348L37.4831 41.8315V49.24L4.36918 49.2204H1.54338C1.07504 49.2204 0.533498 49.1856 0.257671 48.8202C0.0786654 48.5809 0.062906 48.2643 0.062906 47.9685L0.00210714 43.5643C-0.00464781 43.0465 -0.00801869 42.5092 0.205888 42.0349C0.485092 41.4204 1.08405 41.0059 1.65596 40.6209L5.30588 38.1702L23.9202 24.8554H22.6672C22.2244 24.8544 21.7817 24.8529 21.339 24.8514C20.4559 24.8485 19.573 24.8456 18.6897 24.8456L11.2908 24.8272C9.7869 24.8232 8.2832 24.8162 6.77954 24.8091C4.5246 24.7986 2.26975 24.788 0.0145033 24.788V17.3795H34.7766L35.8495 17.3926C36.1018 17.3926 36.3438 17.4894 36.5222 17.6618C36.7006 17.8342 36.8008 18.068 36.8008 18.3117V23.4501C36.8008 24.031 36.4923 24.7347 36.1039 25.1698C35.7517 25.5663 35.2995 25.8726 34.8577 26.172L34.8486 26.1781C34.816 26.1988 34.7845 26.2205 34.7529 26.2423L13.1168 41.8087C13.347 41.8152 13.5715 41.8152 13.796 41.8152H13.798H15.471H18.8158L25.5043 41.8228H26.307Z" fill="#29304E"/>
<path d="M190.075 49.4336V30.247H195.14V49.4336H190.075ZM192.608 27.1388C191.84 27.1388 191.163 26.8574 190.574 26.2946C189.986 25.7062 189.692 25.0155 189.692 24.2224C189.692 23.4294 189.986 22.7515 190.574 22.1886C191.163 21.6003 191.84 21.3061 192.608 21.3061C193.401 21.3061 194.079 21.6003 194.641 22.1886C195.23 22.7515 195.524 23.4294 195.524 24.2224C195.524 25.0155 195.23 25.7062 194.641 26.2946C194.079 26.8574 193.401 27.1388 192.608 27.1388Z" fill="#AA3EFF"/>
<path d="M182.816 49.4344L182.662 45.5587V39.7259C182.662 38.5747 182.535 37.5898 182.279 36.7712C182.048 35.9526 181.665 35.3258 181.128 34.8909C180.616 34.4304 179.912 34.2002 179.017 34.2002C178.199 34.2002 177.457 34.3793 176.792 34.7374C176.127 35.0956 175.564 35.6456 175.103 36.3875L170.652 34.8525C171.01 34.0339 171.535 33.2409 172.226 32.4734C172.916 31.6804 173.812 31.0408 174.911 30.5547C176.037 30.0431 177.406 29.7873 179.017 29.7873C180.961 29.7873 182.573 30.1582 183.852 30.9001C185.157 31.642 186.116 32.6909 186.73 34.0467C187.369 35.377 187.676 36.9631 187.651 38.805L187.536 49.4344H182.816ZM177.444 49.8949C175.142 49.8949 173.351 49.3832 172.072 48.3599C170.819 47.3366 170.192 45.8912 170.192 44.0238C170.192 41.9772 170.87 40.4422 172.226 39.419C173.607 38.3701 175.538 37.8457 178.02 37.8457H182.893V41.6062H179.785C178.122 41.6062 176.971 41.8109 176.331 42.2202C175.692 42.6039 175.372 43.154 175.372 43.8703C175.372 44.4331 175.628 44.8808 176.139 45.2133C176.651 45.5203 177.367 45.6738 178.288 45.6738C179.132 45.6738 179.874 45.4819 180.514 45.0982C181.179 44.6889 181.703 44.1772 182.087 43.5633C182.471 42.9237 182.662 42.2714 182.662 41.6062H183.89C183.89 44.2156 183.391 46.2494 182.394 47.7076C181.422 49.1658 179.772 49.8949 177.444 49.8949Z" fill="#AA3EFF"/>
</svg>
